<svg width="44" height="44" viewBox="0 0 44 44" fill="none" xmlns="http://www.w3.org/2000/svg">
<path d="M22 22.3333C20.9802 22.3333 19.9833 22.04 19.1353 21.4906C18.2874 20.9412 17.6265 20.1603 17.2362 19.2467C16.846 18.333 16.7439 17.3277 16.9428 16.3578C17.1418 15.3879 17.6329 14.497 18.354 13.7977C19.0751 13.0985 19.9939 12.6223 20.9941 12.4293C21.9943 12.2364 23.031 12.3354 23.9732 12.7139C24.9154 13.0923 25.7207 13.7332 26.2873 14.5554C26.8538 15.3776 27.1563 16.3443 27.1563 17.3333C27.1563 18.6593 26.613 19.9311 25.646 20.8688C24.679 21.8065 23.3675 22.3333 22 22.3333ZM22 14.3333C21.3881 14.3333 20.79 14.5092 20.2812 14.8388C19.7724 15.1685 19.3759 15.637 19.1418 16.1852C18.9076 16.7334 18.8463 17.3366 18.9657 17.9185C19.0851 18.5005 19.3797 19.035 19.8124 19.4546C20.2451 19.8741 20.7963 20.1599 21.3964 20.2756C21.9966 20.3914 22.6186 20.332 23.1839 20.1049C23.7492 19.8778 24.2324 19.4933 24.5724 19C24.9123 18.5066 25.0938 17.9266 25.0938 17.3333C25.0938 16.5376 24.7678 15.7745 24.1876 15.2119C23.6074 14.6493 22.8205 14.3333 22 14.3333V14.3333Z" fill="black"/>
<path d="M31.625 31.6666C31.3526 31.6631 31.0924 31.5567 30.8997 31.3699C30.7071 31.1831 30.5973 30.9307 30.5938 30.6666C30.5938 28.0666 29.1363 26.3333 22 26.3333C14.8637 26.3333 13.4062 28.0666 13.4062 30.6666C13.4062 30.9318 13.2976 31.1862 13.1042 31.3737C12.9108 31.5612 12.6485 31.6666 12.375 31.6666C12.1015 31.6666 11.8392 31.5612 11.6458 31.3737C11.4524 31.1862 11.3438 30.9318 11.3438 30.6666C11.3438 24.3333 18.81 24.3333 22 24.3333C25.19 24.3333 32.6562 24.3333 32.6562 30.6666C32.6527 30.9307 32.5429 31.1831 32.3503 31.3699C32.1576 31.5567 31.8974 31.6631 31.625 31.6666Z" fill="black"/>
</svg>
